<?xml version="1.0" encoding="utf-8" standalone="yes"?>
<!DOCTYPE svg PUBLIC "-//W3C//DTD SVG 1.1//EN" "http://www.w3.org/Graphics/SVG/1.1/DTD/svg11.dtd">
<svg width="425" height="494" viewBox="0 0 425 494" style="fill:none;stroke:none;fill-rule:evenodd;clip-rule:evenodd;stroke-linecap:round;stroke-linejoin:round;stroke-miterlimit:1.5;" version="1.1" xmlns="http://www.w3.org/2000/svg" xmlns:xlink="http://www.w3.org/1999/xlink"><style class="text-font-style fontImports" data-font-family="Roboto">@import url('https://fonts.googleapis.com/css2?family=Roboto:wght@400;700&amp;display=block');</style><g id="items" style="isolation: isolate"><g id="blend" style="mix-blend-mode: normal"><g id="g-root-0.cu_cu_sy_1hfozuu1b7lu6d-fill" data-item-order="-40602" transform="translate(124.199951171875, 99)"><g id="0.cu_cu_sy_1hfozuu1b7lu6d-fill" stroke="none" fill="url(#gradient-8a8a8a-330675446)"><g><path d="M 153.971 84.0587C 153.99 83.3748 154 82.6885 154 82C 154 42.2355 121.765 10 82 10C 42.2355 10 10 42.2355 10 82C 10 121.765 42.2355 154 82 154C 101.9917 154 120.08 145.852 133.126 132.696C 131.117 128.209 130 123.235 130 118C 130 102.3362 140.004 89.0089 153.971 84.0587Z"></path></g></g></g><g id="g-root-2.cu_cu_sy_18kogp21b7lrta-fill" data-item-order="-40598" transform="translate(244.199951171875, 170.99993896484375)"><g id="2.cu_cu_sy_18kogp21b7lrta-fill" stroke="none" fill="url(#gradient-87aa3f-469929121)"><g><path d="M 82 46C 82 65.8823 65.8823 82 46 82C 26.1177 82 10 65.8823 10 46C 10 26.1177 26.1177 10 46 10C 65.8823 10 82 26.1177 82 46Z"></path></g></g></g><g id="g-root-1.cu_cu_sy_144uykm1b7lslj-fill" data-item-order="-40594" transform="translate(46.199951171875, 135)"><defs><linearGradient id="gradient-8a8a8a-330675446" x2="0" y2="1"><stop offset="0" stop-color="#959595"></stop><stop offset="1" stop-color="#7f7f7f"></stop></linearGradient><linearGradient id="gradient-87aa3f-469929121" x2="0" y2="1"><stop offset="0" stop-color="#91bb39"></stop><stop offset="1" stop-color="#7d9844"></stop></linearGradient><linearGradient id="gradient-40ae79-389135447" x2="0" y2="1"><stop offset="0" stop-color="#3bc482"></stop><stop offset="1" stop-color="#449870"></stop></linearGradient></defs><g id="1.cu_cu_sy_144uykm1b7lslj-fill" stroke="none" fill="url(#gradient-40ae79-389135447)"><g><path d="M 58 34C 58 47.2548 47.2548 58 34 58C 20.7452 58 10 47.2548 10 34C 10 20.7452 20.7452 10 34 10C 47.2548 10 58 20.7452 58 34Z"></path></g></g></g><g id="g-root--1.cu_sy_zp1gg61b7ltds-fill" data-item-order="-40589" transform="translate(70.145263671875, 128.263671875)"></g><g id="g-root-tx_enhancin_zp1gg61b7ltdt-fill" data-item-order="0" transform="translate(22.199951171875, 15)"><g id="tx_enhancin_zp1gg61b7ltdt-fill" stroke="none" fill="#f4f4f4"><g><text style="font: 25px Roboto, sans-serif; white-space: pre;" font-size="25px" font-family="Roboto, sans-serif"><tspan x="14.55" y="43" dominant-baseline="ideographic">Enhancing Programming Skills</tspan></text></g></g></g><g id="g-root-1_1usegee1b7on46-fill" data-item-order="0" transform="translate(55.199951171875, 144)"></g><g id="g-root-puzz_1d1r05i1b7hkao-fill" data-item-order="0" transform="translate(160.199951171875, 135)"></g><g id="g-root-stac_92qwsm1b7ltdw-fill" data-item-order="0" transform="translate(259.199951171875, 185.99993896484375)"></g><g id="g-root-tx_function_qqwn0m1b7q03w-fill" data-item-order="0" transform="translate(40.199951171875, 267)"><g id="tx_function_qqwn0m1b7q03w-fill" stroke="none" fill="#43dd93"><g><text style="font: bold 25px Roboto, sans-serif; white-space: pre;" font-weight="bold" font-size="25px" font-family="Roboto, sans-serif"><tspan x="14.73" y="43" dominant-baseline="ideographic">Functions</tspan></text></g></g></g><g id="g-root-tx_objects_mb34w61b7q0w5-fill" data-item-order="0" transform="translate(244.199951171875, 267)"><g id="tx_objects_mb34w61b7q0w5-fill" stroke="none" fill="#a6da37"><g><text style="font: bold 25px Roboto, sans-serif; white-space: pre;" font-weight="bold" font-size="25px" font-family="Roboto, sans-serif"><tspan x="15.18" y="43" dominant-baseline="ideographic">Objects</tspan></text></g></g></g><g id="g-root-tx_understa_me7f5y1b7lrsy-fill" data-item-order="0" transform="translate(10.199951171875, 303)"><g id="tx_understa_me7f5y1b7lrsy-fill" stroke="none" fill="#f4f4f4"><g><text style="font: 25px Roboto, sans-serif; white-space: pre;" font-size="25px" font-family="Roboto, sans-serif"><tspan x="17.16" y="40" dominant-baseline="ideographic">Understanding </tspan><tspan x="44.17" y="70" dominant-baseline="ideographic">and using </tspan><tspan x="20.31" y="100" dominant-baseline="ideographic">reusable code </tspan><tspan x="61.81" y="130" dominant-baseline="ideographic">blocks</tspan></text></g></g></g><g id="g-root-tx_workingw_dikex21b7lsln-fill" data-item-order="0" transform="translate(208.199951171875, 302.99993896484375)"><g id="tx_workingw_dikex21b7lsln-fill" stroke="none" fill="#f4f4f4"><g><text style="font: 25px Roboto, sans-serif; white-space: pre;" font-size="25px" font-family="Roboto, sans-serif"><tspan x="20.3" y="43" dominant-baseline="ideographic">Working with </tspan><tspan x="67.63" y="73" dominant-baseline="ideographic">data </tspan><tspan x="12.13" y="103" dominant-baseline="ideographic">structures and </tspan><tspan x="67.48" y="133" dominant-baseline="ideographic">their </tspan><tspan x="26.77" y="163" dominant-baseline="ideographic">interactions</tspan></text></g></g></g><g id="g-root-0.cu_cu_sy_1hfozuu1b7lu6d-stroke" data-item-order="-40602" transform="translate(124.199951171875, 99)"><g id="0.cu_cu_sy_1hfozuu1b7lu6d-stroke" fill="none" stroke-linecap="round" stroke-linejoin="round" stroke-miterlimit="4" stroke="#f4f4f4" stroke-width="2"><g><path d="M 153.9711 84.0587C 153.9903 83.3748 154 82.6885 154 82C 154 42.2355 121.7645 10 82 10C 42.2355 10 10 42.2355 10 82C 10 121.7645 42.2355 154 82 154C 101.9917 154 120.0804 145.8521 133.1264 132.696C 131.1173 128.2086 130 123.2348 130 118C 130 102.3362 140.0039 89.0089 153.9711 84.0587Z"></path></g></g></g><g id="g-root-2.cu_cu_sy_18kogp21b7lrta-stroke" data-item-order="-40598" transform="translate(244.199951171875, 170.99993896484375)"><g id="2.cu_cu_sy_18kogp21b7lrta-stroke" fill="none" stroke-linecap="round" stroke-linejoin="round" stroke-miterlimit="4" stroke="#f4f4f4" stroke-width="2"><g><path d="M 82 46C 82 65.8823 65.8823 82 46 82C 26.1177 82 10 65.8823 10 46C 10 26.1177 26.1177 10 46 10C 65.8823 10 82 26.1177 82 46Z"></path></g></g></g><g id="g-root-1.cu_cu_sy_144uykm1b7lslj-stroke" data-item-order="-40594" transform="translate(46.199951171875, 135)"><g id="1.cu_cu_sy_144uykm1b7lslj-stroke" fill="none" stroke-linecap="round" stroke-linejoin="round" stroke-miterlimit="4" stroke="#f4f4f4" stroke-width="2"><g><path d="M 58 34C 58 47.2548 47.2548 58 34 58C 20.7452 58 10 47.2548 10 34C 10 20.7452 20.7452 10 34 10C 47.2548 10 58 20.7452 58 34Z"></path></g></g></g><g id="g-root--1.cu_sy_zp1gg61b7ltds-stroke" data-item-order="-40589" transform="translate(70.145263671875, 128.263671875)"><g id="-1.cu_sy_zp1gg61b7ltds-stroke" fill="none" stroke-linecap="round" stroke-linejoin="round" stroke-miterlimit="4" stroke="#f4f4f4" stroke-width="2" stroke-dasharray="5.0, 7.0"><g><path d="M 182.918501 98.2234C 175.841301 99.1205 156.603201 100.9147 136.2687 100.9147C 115.934101 100.9147 89.2496 97.5959 78.4491 95.9365C 45.9432 90.1943 20.891501 79.7437 10 67.0232M 254.957401 73.6066C 263.3495 67.2961 268.0542 60.2159 268.0542 52.7362C 268.0542 34.1674 239.0583 18.0612 196.633 10.0783M 29.9236 24.1902C 41.991601 18.2671 57.720201 13.3897 75.8935 10"></path></g></g></g><g id="g-root-tx_enhancin_zp1gg61b7ltdt-stroke" data-item-order="0" transform="translate(22.199951171875, 15)"></g><g id="g-root-1_1usegee1b7on46-stroke" data-item-order="0" transform="translate(55.199951171875, 144)"><g id="1_1usegee1b7on46-stroke" fill="none" stroke-linecap="round" stroke-linejoin="round" stroke-miterlimit="4" stroke="#f4f4f4" stroke-width="2"><g><path d="M 13.125 13.755L 36.875 13.755C 36.875 13.755 39.375 13.755 39.375 16.254999L 39.375 33.755001C 39.375 33.755001 39.375 36.255001 36.875 36.255001L 13.125 36.255001C 13.125 36.255001 10.625 36.255001 10.625 33.755001L 10.625 16.254999C 10.625 16.254999 10.625 13.755 13.125 13.755M 10.625 20.004999L 39.375 20.004999M 15 16.567501C 15.172588 16.567501 15.3125 16.707411 15.3125 16.880001C 15.3125 17.052589 15.172588 17.192501 15 17.192501C 14.827411 17.192501 14.6875 17.052589 14.6875 16.880001C 14.6875 16.707411 14.827411 16.567501 15 16.567501M 18.75 16.567501C 18.922588 16.567501 19.0625 16.707411 19.0625 16.880001C 19.0625 17.052589 18.922588 17.192501 18.75 17.192501C 18.577412 17.192501 18.4375 17.052589 18.4375 16.880001C 18.4375 16.707411 18.577412 16.567501 18.75 16.567501M 22.5 16.567501C 22.672588 16.567501 22.8125 16.707411 22.8125 16.880001C 22.8125 17.052589 22.672588 17.192501 22.5 17.192501C 22.327412 17.192501 22.1875 17.052589 22.1875 16.880001C 22.1875 16.707411 22.327412 16.567501 22.5 16.567501M 15 23.754999L 17.5 23.754999C 17.5 23.754999 18.125 23.754999 18.125 24.379999L 18.125 25.629999C 18.125 25.629999 18.125 26.254999 17.5 26.254999L 15 26.254999C 15 26.254999 14.375 26.254999 14.375 25.629999L 14.375 24.379999C 14.375 24.379999 14.375 23.754999 15 23.754999M 15 30.004999L 17.5 30.004999C 17.5 30.004999 18.125 30.004999 18.125 30.629999L 18.125 31.879999C 18.125 31.879999 18.125 32.505001 17.5 32.505001L 15 32.505001C 15 32.505001 14.375 32.505001 14.375 31.879999L 14.375 30.629999C 14.375 30.629999 14.375 30.004999 15 30.004999M 21.875 25.004999L 35.625 25.004999M 21.875 31.254999L 35.625 31.254999"></path></g></g></g><g id="g-root-puzz_1d1r05i1b7hkao-stroke" data-item-order="0" transform="translate(160.199951171875, 135)"><g id="puzz_1d1r05i1b7hkao-stroke" fill="none" stroke-linecap="round" stroke-linejoin="round" stroke-miterlimit="4" stroke="#f4f4f4" stroke-width="2"><g><path d="M 71.470001 46C 71.470001 45.760002 71.470001 45.489998 71.470001 45.25C 71.470001 41.522079 68.447922 38.5 64.720001 38.5C 60.992081 38.5 57.970001 41.522079 57.970001 45.25C 57.970001 45.489998 57.970001 45.760002 57.970001 46L 49.75 46L 49.75 55L 50.5 55C 54.227921 55 57.25 58.022076 57.25 61.75C 57.25 65.477921 54.227921 68.5 50.5 68.5L 49.75 68.5L 49.75 77.5L 77.5 77.5C 79.156853 77.5 80.5 76.156853 80.5 74.5L 80.5 46ZM 50.5 55L 49.75 55L 49.75 46L 42.220001 46C 42.220001 46.239998 42.220001 46.510002 42.220001 46.75C 42.220001 50.477921 39.197922 53.5 35.470001 53.5C 31.742077 53.5 28.720001 50.477921 28.720001 46.75C 28.719999 46.510002 28.719999 46.239998 28.719999 46L 19 46L 19 55L 18.25 55C 14.522079 55 11.5 58.022076 11.5 61.75C 11.5 65.477921 14.522079 68.5 18.25 68.5L 19 68.5L 19 74.5C 19 76.156853 20.343145 77.5 22 77.5L 49.75 77.5L 49.75 68.5L 50.5 68.5C 54.227921 68.5 57.25 65.477921 57.25 61.75C 57.25 58.022076 54.227921 55 50.5 55ZM 49.75 37L 49 37C 45.272079 37 42.25 33.977924 42.25 30.25C 42.25 26.522079 45.272079 23.5 49 23.5L 49.75 23.5L 49.75 14.5L 22 14.5C 20.343145 14.5 19 15.843145 19 17.5L 19 23.5L 19.75 23.5C 23.477921 23.5 26.5 26.522079 26.5 30.25C 26.5 33.977924 23.477921 37 19.75 37L 19 37L 19 46L 28.780001 46C 28.780001 46.239998 28.780001 46.510002 28.780001 46.75C 28.780001 50.477921 31.802078 53.5 35.529999 53.5C 39.257923 53.5 42.279999 50.477921 42.279999 46.75C 42.279999 46.510002 42.279999 46.239998 42.279999 46L 49.810001 46ZM 71.470001 14.5C 71.470001 14.74 71.470001 15.01 71.470001 15.25C 71.470001 18.977922 68.447922 22 64.720001 22C 60.992081 22 57.970001 18.977922 57.970001 15.25C 57.970001 15.01 57.970001 14.74 57.970001 14.5L 49.75 14.5L 49.75 23.5L 49 23.5C 45.272079 23.5 42.25 26.522079 42.25 30.25C 42.25 33.977924 45.272079 37 49 37L 49.75 37L 49.75 46L 58 46C 58 45.760002 58 45.489998 58 45.25C 58 41.522079 61.022076 38.5 64.75 38.5C 68.477921 38.5 71.5 41.522079 71.5 45.25C 71.5 45.489998 71.5 45.760002 71.5 46L 80.5 46L 80.5 17.5C 80.5 15.843145 79.156853 14.5 77.5 14.5Z"></path></g></g></g><g id="g-root-stac_92qwsm1b7ltdw-stroke" data-item-order="0" transform="translate(259.199951171875, 185.99993896484375)"><g id="stac_92qwsm1b7ltdw-stroke" fill="none" stroke-linecap="round" stroke-linejoin="round" stroke-miterlimit="4" stroke="#f4f4f4" stroke-width="2"><g><path d="M 12.70375 24.596748L 38.318497 24.596748C 38.318497 24.596748 40.147247 24.596748 40.147247 26.425499L 40.147247 46.55225C 40.147247 46.55225 40.147247 48.380997 38.318497 48.380997L 12.70375 48.380997C 12.70375 48.380997 10.875 48.380997 10.875 46.55225L 10.875 26.425499C 10.875 26.425499 10.875 24.596748 12.70375 24.596748M 10.875 30.1425L 40.147247 30.1425M 10.875 42.157997L 40.147247 42.157997M 10.875 36.307751L 40.147247 36.307751M 24.596748 30.1425L 24.596748 48.380997M 32.372002 30.1425L 32.372002 48.380997M 18.193501 19.1L 43.806503 19.1C 44.293194 19.099997 44.75985 19.293812 45.10334 19.638613C 45.446827 19.983414 45.638859 20.450809 45.637001 20.9375L 45.637001 44.721748M 23.681499 13.619L 49.296249 13.619C 50.306923 13.618999 51.125965 14.438826 51.124996 15.4495L 51.125 39.225002"></path></g></g></g><g id="g-root-tx_function_qqwn0m1b7q03w-stroke" data-item-order="0" transform="translate(40.199951171875, 267)"></g><g id="g-root-tx_objects_mb34w61b7q0w5-stroke" data-item-order="0" transform="translate(244.199951171875, 267)"></g><g id="g-root-tx_understa_me7f5y1b7lrsy-stroke" data-item-order="0" transform="translate(10.199951171875, 303)"></g><g id="g-root-tx_workingw_dikex21b7lsln-stroke" data-item-order="0" transform="translate(208.199951171875, 302.99993896484375)"></g></g></g></svg>