<?xml version="1.0" encoding="utf-8" standalone="yes"?>
<!DOCTYPE svg PUBLIC "-//W3C//DTD SVG 1.1//EN" "http://www.w3.org/Graphics/SVG/1.1/DTD/svg11.dtd">
<svg width="290" height="284" viewBox="0 0 290 284" style="fill:none;stroke:none;fill-rule:evenodd;clip-rule:evenodd;stroke-linecap:round;stroke-linejoin:round;stroke-miterlimit:1.5;" version="1.1" xmlns="http://www.w3.org/2000/svg" xmlns:xlink="http://www.w3.org/1999/xlink"><style class="text-font-style fontImports" data-font-family="Roboto">@import url('https://fonts.googleapis.com/css2?family=Roboto:wght@400;700&amp;display=block');</style><g id="items" style="isolation: isolate"><g id="blend" style="mix-blend-mode: normal"><g id="g-root-tx_codeyour_v5h3va19ti77x-fill" data-item-order="0" transform="translate(27, -9)"><g id="tx_codeyour_v5h3va19ti77x-fill" stroke="none" fill="#f4f4f4"><g><text style="font: bold 30px Roboto, sans-serif; white-space: pre;" font-weight="bold" font-size="30px" font-family="Roboto, sans-serif"><tspan x="48.27" y="46" dominant-baseline="ideographic">Code Your </tspan><tspan x="13.23" y="82" dominant-baseline="ideographic">Journey Begins</tspan></text></g></g></g><g id="g-root-robo_detkgm19ti6fc-fill" data-item-order="0" transform="translate(45, 69)"></g><g id="g-root-tx_codeyour_v5h3va19ti77x-stroke" data-item-order="0" transform="translate(27, -9)"></g><g id="g-root-robo_detkgm19ti6fc-stroke" data-item-order="0" transform="translate(45, 69)"><g id="robo_detkgm19ti6fc-stroke" fill="none" stroke-linecap="round" stroke-linejoin="round" stroke-miterlimit="4" stroke="#f4f4f4" stroke-width="2"><g><path d="M 106.793503 103.189003C 98.611755 111.37075 94.066002 123.189247 94.066002 135.007751L 94.066002 150.46225C 94.066002 160.462006 85.884247 168.644501 75.883972 168.644501L 66.792923 168.644501C 56.792801 168.644501 48.610901 160.462006 48.610901 150.46225L 48.610901 135.007751C 48.610901 123.189247 44.065372 111.37075 35.883476 103.189003C 26.792501 95.007248 21.3379 82.279602 21.3379 68.643097C 21.3379 41.370102 44.065372 18.64255 71.338448 18.64255C 81.264023 18.64255 90.587502 21.65275 98.432503 26.796774M 71.347679 168.642242L 71.347679 181.369751M 48.6133 132.285263L 94.068245 132.285263M 130.764999 37.952499L 163.660004 37.952499C 163.660004 37.952499 178.660004 37.952499 178.660004 52.952503L 178.660004 71.8825C 178.660004 71.8825 178.660004 86.8825 163.660004 86.8825L 130.764999 86.8825C 130.764999 86.8825 115.764999 86.8825 115.764999 71.8825L 115.764999 52.952503C 115.764999 52.952503 115.764999 37.952499 130.764999 37.952499M 10 10M 147.219254 18.650425L 147.219254 37.9492M 10 10M 136.906754 58.063828L 136.906754 66.777328M 10 10M 157.531754 58.063828L 157.531754 66.777328"></path></g></g></g></g></g></svg>