<?xml version="1.0" encoding="utf-8" standalone="yes"?>
<!DOCTYPE svg PUBLIC "-//W3C//DTD SVG 1.1//EN" "http://www.w3.org/Graphics/SVG/1.1/DTD/svg11.dtd">
<svg width="583" height="366" viewBox="0 0 583 366" style="fill:none;stroke:none;fill-rule:evenodd;clip-rule:evenodd;stroke-linecap:round;stroke-linejoin:round;stroke-miterlimit:1.5;" version="1.1" xmlns="http://www.w3.org/2000/svg" xmlns:xlink="http://www.w3.org/1999/xlink"><style class="text-font-style fontImports" data-font-family="Roboto">@import url('https://fonts.googleapis.com/css2?family=Roboto:wght@400;700&amp;display=block');</style><g id="items" style="isolation: isolate"><g id="blend" style="mix-blend-mode: normal"><g id="g-root-3.cu_sy_v993dy18pl9fy-fill" data-item-order="-46129" transform="translate(374.9654235839844, 206.12744140625)"><g id="3.cu_sy_v993dy18pl9fy-fill" stroke="none" fill="url(#gradient-4f83d8-135982273)"><g><path d="M 96.442375 123.477783C 144.182755 123.477783 182.883987 101.07637 182.883987 73.442879L 182.883987 46.757496C 182.883987 51.378086 181.802582 55.852386 179.776611 60.100185C 169.689178 81.256279 136.199921 96.792404 96.442375 96.792404C 56.684158 96.792404 23.195219 81.256279 13.107478 60.100185C 11.082033 55.852386 9.999994 51.378086 9.999994 46.757496L 9.999994 73.442879C 9.999994 101.07637 48.701523 123.477783 96.442375 123.477783ZM 179.776611 60.100185C 181.802582 55.852386 182.883987 51.378086 182.883987 46.757496C 182.883987 32.225861 172.182312 19.141068 155.090454 9.999997C 151.898148 13.448735 147.824173 16.583172 143.042343 19.302454C 155.320923 26.285545 162.936432 36.006878 162.936432 46.757641C 162.936432 51.448555 161.48616 55.943378 158.831772 60.10033C 149.45845 74.780533 125.06176 85.246178 96.442375 85.246178C 67.822662 85.246178 43.426167 74.780533 34.052307 60.10033C 31.39802 55.943378 29.948206 51.448555 29.948206 46.757641C 29.948206 36.006878 37.563328 26.285545 49.841667 19.302454C 45.060482 16.583172 40.986336 13.448735 37.793694 9.999997C 20.702391 19.141068 9.999994 32.225861 9.999994 46.757496C 9.999994 51.378086 11.082033 55.852386 13.107478 60.100185C 23.195219 81.256279 56.684158 96.792404 96.442375 96.792404C 136.199921 96.792404 169.689178 81.256279 179.776611 60.100185ZM 158.831772 60.10033C 161.48616 55.943378 162.936432 51.448555 162.936432 46.757641C 162.936432 36.006878 155.320923 26.285545 143.042343 19.302454C 131.043762 26.126438 114.592079 30.335714 96.442375 30.335714C 78.292007 30.335714 61.840271 26.126438 49.841667 19.302454C 37.563328 26.285545 29.948206 36.006878 29.948206 46.757641C 29.948206 51.448555 31.39802 55.943378 34.052307 60.10033C 43.426167 45.420151 67.822662 34.954483 96.442375 34.954483C 125.06176 34.954483 149.45845 45.420151 158.831772 60.10033Z"></path></g></g></g><g id="g-root-2.cu_sy_qu22cm18pl72f-fill" data-item-order="-46125" transform="translate(394.9101867675781, 126.9490966796875)"><g id="2.cu_sy_qu22cm18pl72f-fill" stroke="none" fill="url(#gradient-40ae79-389135447)"><g><path d="M 76.494041 109.513763C 113.217316 109.513763 142.988052 92.281906 142.988052 71.025467L 142.988052 44.340069C 142.988052 49.030975 141.538589 53.52581 138.884216 57.682774C 129.510117 72.362953 105.113373 82.828621 76.494041 82.828621C 47.874451 82.828621 23.477955 72.362953 14.104094 57.682774C 11.449807 53.52581 9.999992 49.030975 9.999992 44.340069L 9.999992 71.025467C 9.999992 92.281906 39.770367 109.513763 76.494041 109.513763ZM 138.884216 57.682774C 141.538589 53.52581 142.988052 49.030975 142.988052 44.340069C 142.988052 29.345291 128.173843 16.353214 106.555008 10.00001C 98.444778 13.974886 87.953117 16.371695 76.494041 16.371695C 65.034882 16.371695 54.54295 13.974802 46.432987 9.999997C 24.814123 16.353214 9.999992 29.345291 9.999992 44.340069C 9.999992 49.030975 11.449807 53.52581 14.104094 57.682774C 23.477955 72.362953 47.874451 82.828621 76.494041 82.828621C 105.113373 82.828621 129.510117 72.362953 138.884216 57.682774ZM 29.948204 44.340225C 29.948204 29.460594 50.787426 17.398218 76.494041 17.398218C 102.200256 17.398218 123.039719 29.460594 123.039719 44.340225C 123.039719 49.194641 120.821831 53.749252 116.940536 57.68293C 108.923912 65.806587 93.813965 71.282257 76.494041 71.282257C 59.174175 71.282257 44.063766 65.806587 36.047771 57.68293C 32.166237 53.749252 29.948204 49.194641 29.948204 44.340225ZM 76.494041 17.398218C 50.787426 17.398218 29.948204 29.460594 29.948204 44.340225C 29.948204 49.194641 32.166237 53.749252 36.047771 57.68293C 44.063766 49.559261 59.174175 44.083687 76.494041 44.083687C 93.813965 44.083687 108.923912 49.559261 116.940536 57.68293C 120.821831 53.749252 123.039719 49.194641 123.039719 44.340225C 123.039719 29.460594 102.200256 17.398218 76.494041 17.398218Z"></path></g></g></g><g id="g-root-1.cu_sy_me8k8618pl7uo-fill" data-item-order="-46121" transform="translate(414.8578796386719, 52.751220703125)"><defs><linearGradient id="gradient-4f83d8-135982273" x2="0" y2="1"><stop offset="0" stop-color="#4e88e6"></stop><stop offset="1" stop-color="#4f7eca"></stop></linearGradient><linearGradient id="gradient-40ae79-389135447" x2="0" y2="1"><stop offset="0" stop-color="#3bc482"></stop><stop offset="1" stop-color="#449870"></stop></linearGradient><linearGradient id="gradient-87aa3f-469929121" x2="0" y2="1"><stop offset="0" stop-color="#91bb39"></stop><stop offset="1" stop-color="#7d9844"></stop></linearGradient></defs><g id="1.cu_sy_me8k8618pl7uo-fill" stroke="none" fill="url(#gradient-87aa3f-469929121)"><g><path d="M 56.545826 90.569733C 82.252373 90.569733 103.091354 78.507042 103.091354 63.627399L 103.091354 36.942017C 103.091354 41.796432 100.873466 46.351032 96.992172 50.28471C 88.976318 58.408379 73.865601 63.883953 56.545826 63.883953C 39.225983 63.883953 24.115578 58.408379 16.099581 50.28471C 12.218047 46.351032 10.000014 41.796432 10.000014 36.942017L 10.000014 63.627399C 10.000014 78.507042 30.839306 90.569733 56.545826 90.569733ZM 96.992172 50.28471C 100.873466 46.351032 103.091354 41.796432 103.091354 36.942017C 103.091354 22.062374 82.252373 9.999998 56.545826 9.999998C 30.839306 9.999998 10.000014 22.062374 10.000014 36.942017C 10.000014 41.796432 12.218047 46.351032 16.099581 50.28471C 24.115578 58.408379 39.225983 63.883953 56.545826 63.883953C 73.865601 63.883953 88.976318 58.408379 96.992172 50.28471ZM 56.545826 52.337585C 51.709751 52.337585 47.17511 51.590515 43.267632 50.284863C 47.17511 48.979225 51.709751 48.232143 56.545826 48.232143C 61.381855 48.232143 65.916473 48.979225 69.823975 50.284863C 65.916473 51.590515 61.381855 52.337585 56.545826 52.337585Z"></path></g></g></g><g id="g-root-tx_webdevel_1lxdqw618zkvev-fill" data-item-order="0" transform="translate(27.518585205078125, -1.937255859375)"><g id="tx_webdevel_1lxdqw618zkvev-fill" stroke="none" fill="#ffffff"><g><text style="font: bold 30px Roboto, sans-serif; white-space: pre;" font-weight="bold" font-size="30px" font-family="Roboto, sans-serif"><tspan x="15.09" y="46" dominant-baseline="ideographic">Web Development Skill Acquisition</tspan></text></g></g></g><g id="g-root-tx_webdevel_7rip218pl72i-fill" data-item-order="0" transform="translate(83.46298217773438, 44.18902587890625)"><g id="tx_webdevel_7rip218pl72i-fill" stroke="none" fill="#f4f4f4"><g><text style="font: bold 25px Roboto, sans-serif; white-space: pre;" font-weight="bold" font-size="25px" font-family="Roboto, sans-serif"><tspan x="20.7" y="43" dominant-baseline="ideographic">Web Development</tspan></text></g></g></g><g id="g-root-code_2qeli18zhzwv-fill" data-item-order="0" transform="translate(313.2146911621094, 38.18951416015625)"></g><g id="g-root-tx_building_me8k8618pl7up-fill" data-item-order="0" transform="translate(11.490203857421875, 81.25115966796875)"><g id="tx_building_me8k8618pl7up-fill" stroke="none" fill="#f4f4f4"><g><text style="font: 25px Roboto, sans-serif; white-space: pre;" font-size="25px" font-family="Roboto, sans-serif"><tspan x="21.55" y="40" dominant-baseline="ideographic">Building and maintaining </tspan><tspan x="76.33" y="70" dominant-baseline="ideographic">websites effectively</tspan></text></g></g></g><g id="g-root-tx_cssstyli_1hhlk6e18pl98k-fill" data-item-order="0" transform="translate(155.46298217773438, 138.5670166015625)"><g id="tx_cssstyli_1hhlk6e18pl98k-fill" stroke="none" fill="#f4f4f4"><g><text style="font: bold 25px Roboto, sans-serif; white-space: pre;" font-weight="bold" font-size="25px" font-family="Roboto, sans-serif"><tspan x="20.67" y="43" dominant-baseline="ideographic">CSS Styling</tspan></text></g></g></g><g id="g-root-1_1hhk8rq18zgnbb-fill" data-item-order="0" transform="translate(313.2146911621094, 132.56756591796875)"></g><g id="g-root-tx_applying_1lxf2au18pl8gb-fill" data-item-order="0" transform="translate(47.490203857421875, 175.6265869140625)"><g id="tx_applying_1lxf2au18pl8gb-fill" stroke="none" fill="#f4f4f4"><g><text style="font: 25px Roboto, sans-serif; white-space: pre;" font-size="25px" font-family="Roboto, sans-serif"><tspan x="64.03" y="40" dominant-baseline="ideographic">Applying styles to </tspan><tspan x="13.84" y="70" dominant-baseline="ideographic">enhance visual appeal</tspan></text></g></g></g><g id="g-root-tx_basiclay_146riw618pl7nq-fill" data-item-order="0" transform="translate(143.46298217773438, 232.945068359375)"><g id="tx_basiclay_146riw618pl7nq-fill" stroke="none" fill="#f4f4f4"><g><text style="font: bold 25px Roboto, sans-serif; white-space: pre;" font-weight="bold" font-size="25px" font-family="Roboto, sans-serif"><tspan x="20.27" y="43" dominant-baseline="ideographic">Basic Layout</tspan></text></g></g></g><g id="g-root-righ_qvb0iu18pl98n-fill" data-item-order="0" transform="translate(313.2146911621094, 226.94561767578125)"></g><g id="g-root-tx_understa_18lyjxi18pla19-fill" data-item-order="0" transform="translate(35.490203857421875, 270.004638671875)"><g id="tx_understa_18lyjxi18pla19-fill" stroke="none" fill="#f4f4f4"><g><text style="font: 25px Roboto, sans-serif; white-space: pre;" font-size="25px" font-family="Roboto, sans-serif"><tspan x="35.75" y="40" dominant-baseline="ideographic">Understanding HTML </tspan><tspan x="15.55" y="70" dominant-baseline="ideographic">structure and elements</tspan></text></g></g></g><g id="g-root-3.cu_sy_v993dy18pl9fy-stroke" data-item-order="-46129" transform="translate(374.9654235839844, 206.12744140625)"><g id="3.cu_sy_v993dy18pl9fy-stroke" fill="none" stroke-linecap="round" stroke-linejoin="round" stroke-miterlimit="4" stroke="#f4f4f4" stroke-width="2"><g><path d="M 96.442184 123.478027C 144.182892 123.478027 182.88443 101.076515 182.88443 73.442879L 182.88443 46.757496C 182.88443 51.378086 181.802383 55.852459 179.77684 60.100185C 169.689178 81.256279 136.200165 96.792618 96.442184 96.792618C 56.684158 96.792618 23.195219 81.256279 13.107478 60.100185C 11.082033 55.852459 9.999994 51.378086 9.999994 46.757496L 9.999994 73.442879C 9.999994 101.076515 48.701523 123.478027 96.442184 123.478027ZM 179.77684 60.100185C 181.802383 55.852459 182.88443 51.378086 182.88443 46.757496C 182.88443 32.225861 172.182022 19.141068 155.090698 9.999997C 151.897964 13.448735 147.823929 16.583172 143.042725 19.302454C 155.32106 26.285545 162.936188 36.006878 162.936188 46.757641C 162.936188 51.448555 161.486404 55.943378 158.832016 60.10033C 149.458252 74.780533 125.06176 85.246178 96.442184 85.246178C 67.822662 85.246178 43.426167 74.780533 34.052307 60.10033C 31.39802 55.943378 29.948206 51.448555 29.948206 46.757641C 29.948206 36.006878 37.563328 26.285545 49.841667 19.302454C 45.060482 16.583172 40.986336 13.448735 37.793694 9.999997C 20.702391 19.141068 9.999994 32.225861 9.999994 46.757496C 9.999994 51.378086 11.082033 55.852459 13.107478 60.100185C 23.195219 81.256279 56.684158 96.792618 96.442184 96.792618C 136.200165 96.792618 169.689178 81.256279 179.77684 60.100185ZM 158.832016 60.10033C 161.486404 55.943378 162.936188 51.448555 162.936188 46.757641C 162.936188 36.006878 155.32106 26.285545 143.042725 19.302454C 131.044144 26.126438 114.592415 30.335714 96.442184 30.335714C 78.292007 30.335714 61.840271 26.126438 49.841667 19.302454C 37.563328 26.285545 29.948206 36.006878 29.948206 46.757641C 29.948206 51.448555 31.39802 55.943378 34.052307 60.10033C 43.426167 45.420151 67.822662 34.954483 96.442184 34.954483C 125.06176 34.954483 149.458252 45.420151 158.832016 60.10033Z"></path></g></g></g><g id="g-root-2.cu_sy_qu22cm18pl72f-stroke" data-item-order="-46125" transform="translate(394.9101867675781, 126.9490966796875)"><g id="2.cu_sy_qu22cm18pl72f-stroke" fill="none" stroke-linecap="round" stroke-linejoin="round" stroke-miterlimit="4" stroke="#f4f4f4" stroke-width="2"><g><path d="M 76.494041 109.514008C 113.217606 109.514008 142.988007 92.282074 142.988007 71.025467L 142.988007 44.340069C 142.988007 49.030975 141.538162 53.52581 138.883881 57.682774C 129.51001 72.362953 105.113518 82.828621 76.494041 82.828621C 47.874451 82.828621 23.477955 72.362953 14.104094 57.682774C 11.449807 53.52581 9.999992 49.030975 9.999992 44.340069L 9.999992 71.025467C 9.999992 92.282074 39.770367 109.514008 76.494041 109.514008ZM 138.883881 57.682774C 141.538162 53.52581 142.988007 49.030975 142.988007 44.340069C 142.988007 29.345291 128.173843 16.353214 106.555008 9.999997C 98.445015 13.974802 87.953117 16.371695 76.494041 16.371695C 65.034882 16.371695 54.54295 13.974802 46.432987 9.999997C 24.814123 16.353214 9.999992 29.345291 9.999992 44.340069C 9.999992 49.030975 11.449807 53.52581 14.104094 57.682774C 23.477955 72.362953 47.874451 82.828621 76.494041 82.828621C 105.113518 82.828621 129.51001 72.362953 138.883881 57.682774ZM 29.948204 44.340225C 29.948204 29.460594 50.787426 17.398218 76.494041 17.398218C 102.200546 17.398218 123.039764 29.460594 123.039764 44.340225C 123.039764 49.194641 120.821732 53.749252 116.940201 57.68293C 108.924202 65.806587 93.81382 71.282257 76.494041 71.282257C 59.174175 71.282257 44.063766 65.806587 36.047771 57.68293C 32.166237 53.749252 29.948204 49.194641 29.948204 44.340225ZM 76.494041 17.398218C 50.787426 17.398218 29.948204 29.460594 29.948204 44.340225C 29.948204 49.194641 32.166237 53.749252 36.047771 57.68293C 44.063766 49.559261 59.174175 44.083687 76.494041 44.083687C 93.81382 44.083687 108.924202 49.559261 116.940201 57.68293C 120.821732 53.749252 123.039764 49.194641 123.039764 44.340225C 123.039764 29.460594 102.200546 17.398218 76.494041 17.398218Z"></path></g></g></g><g id="g-root-1.cu_sy_me8k8618pl7uo-stroke" data-item-order="-46121" transform="translate(414.8578796386719, 52.751220703125)"><g id="1.cu_sy_me8k8618pl7uo-stroke" fill="none" stroke-linecap="round" stroke-linejoin="round" stroke-miterlimit="4" stroke="#f4f4f4" stroke-width="2"><g><path d="M 56.545826 90.569344C 82.252373 90.569344 103.091591 78.507042 103.091591 63.627399L 103.091591 36.942017C 103.091591 41.796432 100.873558 46.351032 96.992027 50.28471C 88.976028 58.408379 73.865601 63.883953 56.545826 63.883953C 39.225983 63.883953 24.115578 58.408379 16.099581 50.28471C 12.218047 46.351032 10.000014 41.796432 10.000014 36.942017L 10.000014 63.627399C 10.000014 78.507042 30.839306 90.569344 56.545826 90.569344ZM 96.992027 50.28471C 100.873558 46.351032 103.091591 41.796432 103.091591 36.942017C 103.091591 22.062374 82.252373 9.999998 56.545826 9.999998C 30.839306 9.999998 10.000014 22.062374 10.000014 36.942017C 10.000014 41.796432 12.218047 46.351032 16.099581 50.28471C 24.115578 58.408379 39.225983 63.883953 56.545826 63.883953C 73.865601 63.883953 88.976028 58.408379 96.992027 50.28471ZM 56.545826 52.337585C 51.709751 52.337585 47.17511 51.590515 43.267632 50.284863C 47.17511 48.979225 51.709751 48.232143 56.545826 48.232143C 61.381855 48.232143 65.916473 48.979225 69.823975 50.284863C 65.916473 51.590515 61.381855 52.337585 56.545826 52.337585ZM 43.267632 50.284863C 35.306213 47.624588 29.948223 42.645596 29.948223 36.942173C 29.948223 28.439501 41.856361 21.546759 56.545826 21.546759C 71.235222 21.546759 83.143364 28.439501 83.143364 36.942173C 83.143364 42.645596 77.785393 47.624588 69.823975 50.284863"></path></g></g></g><g id="g-root-tx_webdevel_1lxdqw618zkvev-stroke" data-item-order="0" transform="translate(27.518585205078125, -1.937255859375)"></g><g id="g-root-tx_webdevel_7rip218pl72i-stroke" data-item-order="0" transform="translate(83.46298217773438, 44.18902587890625)"></g><g id="g-root-code_2qeli18zhzwv-stroke" data-item-order="0" transform="translate(313.2146911621094, 38.18951416015625)"><g id="code_2qeli18zhzwv-stroke" fill="none" stroke-linecap="round" stroke-linejoin="round" stroke-miterlimit="4" stroke="#f4f4f4" stroke-width="2"><g><path d="M 28.298212 18.174204L 28.298212 13.574663C 28.298212 12.374783 29.098133 11.574855 30.297972 11.574855L 49.496056 11.574855C 49.896019 11.574855 50.495956 11.774835 50.695938 11.974814L 55.495457 15.974423C 55.89542 16.374384 56.295376 16.974323 56.295376 17.574263L 56.295376 42.571747C 56.295376 43.771629 55.495457 44.571548 54.295578 44.571548L 39.297073 44.571548M 10 10M 36.297375 19.973984L 33.297672 22.973684L 36.297375 25.973385M 10 10M 48.296177 19.973984L 51.295876 22.973684L 48.296177 25.973385M 10 10M 40.296974 26.973345L 44.296574 17.974243M 37.097294 56.420364C 35.297474 51.220882 30.297972 47.421265 24.498512 47.421265C 18.699091 47.421265 13.499611 51.220882 11.699782 56.420364M 24.298573 29.42304L 24.298573 23.423639M 13.299471 35.222481L 35.297276 35.222481M 16.099192 37.42226C 16.299171 41.821823 19.898811 45.421463 24.298372 45.421463C 28.897913 45.421463 32.497555 41.821823 32.497555 37.222282L 32.497555 33.622643C 32.497555 29.023081 28.897913 25.423441 24.298372 25.423441C 19.898811 25.423441 16.299171 29.023081 16.099192 33.422661L 16.099192 37.42226Z"></path></g></g></g><g id="g-root-tx_building_me8k8618pl7up-stroke" data-item-order="0" transform="translate(11.490203857421875, 81.25115966796875)"></g><g id="g-root-tx_cssstyli_1hhlk6e18pl98k-stroke" data-item-order="0" transform="translate(155.46298217773438, 138.5670166015625)"></g><g id="g-root-1_1hhk8rq18zgnbb-stroke" data-item-order="0" transform="translate(313.2146911621094, 132.56756591796875)"><g id="1_1hhk8rq18zgnbb-stroke" fill="none" stroke-linecap="round" stroke-linejoin="round" stroke-miterlimit="4" stroke="#f4f4f4" stroke-width="2"><g><path d="M 12.999701 11.007899L 54.995506 11.007899C 54.995506 11.007899 56.995308 11.007899 56.995308 13.0077L 56.995308 55.003506C 56.995308 55.003506 56.995308 57.003307 54.995506 57.003307L 12.999701 57.003307C 12.999701 57.003307 10.9999 57.003307 10.9999 55.003506L 10.9999 13.0077C 10.9999 13.0077 10.9999 11.007899 12.999701 11.007899M 24.998503 48.996105C 20.580666 48.996105 16.999302 45.414742 16.999302 40.996906C 16.999302 36.579067 20.580666 32.997704 24.998503 32.997704M 48.996105 32.997704L 44.704536 32.997704C 42.985497 32.998325 41.492332 34.1805 41.097412 35.853565C 40.702488 37.526627 41.509392 39.251728 43.0467 40.021004L 46.946312 41.97081C 48.48597 42.738934 49.294838 44.465389 48.899662 46.140018C 48.504478 47.814648 47.009102 48.997345 45.288475 48.996105L 40.996906 48.996105M 36.997303 32.997704L 32.705734 32.997704C 30.986691 32.998325 29.493532 34.1805 29.098608 35.853565C 28.703686 37.526627 29.51059 39.251728 31.047899 40.021004L 34.94751 41.97081C 36.487164 42.738934 37.29604 44.465389 36.900856 46.140018C 36.505676 47.814648 35.0103 48.997345 33.289673 48.996105L 28.998102 48.996105"></path></g></g></g><g id="g-root-tx_applying_1lxf2au18pl8gb-stroke" data-item-order="0" transform="translate(47.490203857421875, 175.6265869140625)"></g><g id="g-root-tx_basiclay_146riw618pl7nq-stroke" data-item-order="0" transform="translate(143.46298217773438, 232.945068359375)"></g><g id="g-root-righ_qvb0iu18pl98n-stroke" data-item-order="0" transform="translate(313.2146911621094, 226.94561767578125)"><g id="righ_qvb0iu18pl98n-stroke" fill="none" stroke-linecap="round" stroke-linejoin="round" stroke-miterlimit="4" stroke="#f4f4f4" stroke-width="2"><g><path d="M 54.214386 44.828522C 55.318874 44.828522 56.214184 43.933212 56.214184 42.828724L 56.214184 25.166447C 56.214184 24.061996 55.318874 23.166666 54.214386 23.166666L 35.512451 23.166645C 34.407963 23.166645 33.512653 24.061996 33.512653 25.166447L 33.512653 42.828724C 33.512653 43.933212 34.407963 44.828522 35.512451 44.828522L 54.214386 44.828522ZM 10 10M 56.214184 12.331807L 11.788883 12.331807M 25.857796 23.166645L 11.781073 23.166645M 25.857796 34.001602L 11.781073 34.001602M 25.857796 44.828522L 11.781073 44.828522M 56.214184 55.663441L 11.788883 55.663441"></path></g></g></g><g id="g-root-tx_understa_18lyjxi18pla19-stroke" data-item-order="0" transform="translate(35.490203857421875, 270.004638671875)"></g></g></g></svg>